<svg width="21" height="36" viewBox="0 0 21 36" fill="none" xmlns="http://www.w3.org/2000/svg">
<path d="M19.86 16.914L3.14102 0.983988C2.86205 0.718053 2.49143 0.569701 2.10602 0.569701C1.72061 0.569701 1.34999 0.718053 1.07102 0.983988L1.05302 1.00199C0.917315 1.13091 0.809256 1.28609 0.735414 1.45809C0.661573 1.63008 0.623493 1.81531 0.623493 2.00249C0.623493 2.18967 0.661573 2.37489 0.735414 2.54689C0.809256 2.71889 0.917314 2.87407 1.05302 3.00299L16.797 18.003L1.05302 32.997C0.917313 33.1259 0.809254 33.2811 0.735413 33.4531C0.661572 33.6251 0.623492 33.8103 0.623492 33.9975C0.623492 34.1847 0.661572 34.3699 0.735413 34.5419C0.809254 34.7139 0.917313 34.8691 1.05302 34.998L1.07102 35.016C1.34998 35.2819 1.72061 35.4303 2.10602 35.4303C2.49143 35.4303 2.86205 35.2819 3.14102 35.016L19.86 19.086C20.0071 18.9459 20.1241 18.7774 20.2041 18.5907C20.2841 18.4041 20.3253 18.2031 20.3253 18C20.3253 17.7969 20.2841 17.5959 20.2041 17.4093C20.1241 17.2226 20.0071 17.0541 19.86 16.914Z" fill="white"/>
</svg>
