<svg width="21" height="36" viewBox="0 0 21 36" fill="none" xmlns="http://www.w3.org/2000/svg">
<path d="M1.13998 16.914L17.859 0.983988C18.1379 0.718053 18.5086 0.569701 18.894 0.569701C19.2794 0.569701 19.65 0.718053 19.929 0.983988L19.947 1.00199C20.0827 1.13091 20.1907 1.28609 20.2646 1.45809C20.3384 1.63008 20.3765 1.81531 20.3765 2.00249C20.3765 2.18967 20.3384 2.37489 20.2646 2.54689C20.1907 2.71889 20.0827 2.87407 19.947 3.00299L4.20298 18.003L19.947 32.997C20.0827 33.1259 20.1907 33.2811 20.2646 33.4531C20.3384 33.6251 20.3765 33.8103 20.3765 33.9975C20.3765 34.1847 20.3384 34.3699 20.2646 34.5419C20.1907 34.7139 20.0827 34.8691 19.947 34.998L19.929 35.016C19.65 35.2819 19.2794 35.4303 18.894 35.4303C18.5086 35.4303 18.1379 35.2819 17.859 35.016L1.13998 19.086C0.992947 18.9459 0.87589 18.7774 0.795908 18.5907C0.715926 18.4041 0.674683 18.2031 0.674683 18C0.674683 17.7969 0.715925 17.5959 0.795908 17.4093C0.87589 17.2226 0.992947 17.0541 1.13998 16.914Z" fill="white"/>
</svg>
