<svg width="168" height="20" viewBox="0 0 168 20" fill="none" xmlns="http://www.w3.org/2000/svg">
<path d="M158.309 0.63501C160.774 0.63501 162.594 0.765716 163.771 1.02713C164.947 1.28854 165.862 1.77402 166.516 2.48356C167.262 3.32381 167.72 4.6402 167.888 6.43274C167.963 7.1983 168 8.51469 168 10.3819C168 12.7159 167.86 14.4338 167.58 15.5355C167.318 16.6184 166.833 17.4774 166.123 18.1122C165.171 18.9525 163.659 19.438 161.586 19.5687C160.559 19.662 157.88 19.7087 153.548 19.7087C151.251 19.7087 149.533 19.634 148.394 19.4846C147.274 19.3353 146.34 19.0645 145.593 18.6724C144.641 18.1496 143.978 17.328 143.605 16.2077C143.25 15.0686 143.073 13.2574 143.073 10.774C143.073 7.95453 143.157 6.09664 143.325 5.20037C143.773 2.71696 145.416 1.28854 148.254 0.915093C149.673 0.728371 153.025 0.63501 158.309 0.63501ZM155.648 4.16406C154.659 4.16406 153.921 4.16406 153.436 4.16406C152.95 4.16406 152.371 4.19207 151.699 4.24809C151.027 4.28543 150.551 4.31344 150.271 4.33211C150.009 4.35079 149.673 4.43481 149.262 4.58419C148.87 4.73356 148.618 4.85493 148.506 4.9483C148.394 5.02298 148.235 5.20971 148.03 5.50846C147.825 5.80722 147.713 6.0593 147.694 6.26469C147.675 6.45141 147.629 6.79685 147.554 7.301C147.498 7.80515 147.47 8.23461 147.47 8.58938C147.47 8.92548 147.47 9.46698 147.47 10.2139C147.47 11.0541 147.47 11.6983 147.47 12.1464C147.47 12.5946 147.517 13.0801 147.61 13.6029C147.722 14.107 147.815 14.4618 147.89 14.6672C147.983 14.8726 148.179 15.106 148.478 15.3674C148.796 15.6101 149.085 15.7689 149.346 15.8435C149.626 15.8996 150.084 15.9743 150.719 16.0676C151.354 16.1423 151.942 16.1796 152.483 16.1796C153.043 16.1796 153.856 16.1796 154.92 16.1796C157.59 16.1796 159.364 16.1423 160.242 16.0676C161.138 15.9929 161.838 15.8155 162.342 15.5355C162.865 15.2554 163.22 14.7419 163.407 13.995C163.593 13.2481 163.687 11.941 163.687 10.0738C163.687 9.34561 163.687 8.81345 163.687 8.47735C163.687 8.12258 163.659 7.70245 163.603 7.21697C163.547 6.7315 163.5 6.39539 163.463 6.20867C163.444 6.02195 163.332 5.77921 163.126 5.48045C162.94 5.1817 162.79 4.99498 162.678 4.92029C162.566 4.82693 162.305 4.70556 161.894 4.55618C161.502 4.4068 161.175 4.33211 160.914 4.33211C160.652 4.31344 160.186 4.28543 159.513 4.24809C158.86 4.19207 158.29 4.16406 157.805 4.16406C157.338 4.16406 156.619 4.16406 155.648 4.16406Z" fill="white"/>
<path d="M128.025 9.06557L134.131 2.17551C134.579 1.61535 134.999 1.2419 135.391 1.05518C135.783 0.868458 136.334 0.793769 137.044 0.831113H138.836C139.49 0.831113 139.817 1.10186 139.817 1.64336C139.817 1.79273 139.705 2.00746 139.48 2.28755L130.154 12.4826V17.6921C130.191 18.9058 129.622 19.5127 128.445 19.5127H127.549C126.373 19.5127 125.803 18.9058 125.84 17.6921V12.4826L116.43 2.28755C116.206 2.04481 116.094 1.82074 116.094 1.61535C116.094 1.09252 116.42 0.831113 117.074 0.831113H118.95C119.66 0.793769 120.211 0.868458 120.603 1.05518C120.995 1.2419 121.415 1.61535 121.863 2.17551L128.025 9.06557Z" fill="white"/>
<path d="M95.2235 0.63501C97.6883 0.63501 99.5088 0.765716 100.685 1.02713C101.862 1.28854 102.776 1.77402 103.43 2.48356C104.177 3.32381 104.634 4.6402 104.802 6.43274C104.877 7.1983 104.914 8.51469 104.914 10.3819C104.914 12.7159 104.774 14.4338 104.494 15.5355C104.233 16.6184 103.747 17.4774 103.038 18.1122C102.086 18.9525 100.573 19.438 98.5005 19.5687C97.4735 19.662 94.7941 19.7087 90.4621 19.7087C88.1654 19.7087 86.4476 19.634 85.3086 19.4846C84.1883 19.3353 83.2546 19.0645 82.5078 18.6724C81.5555 18.1496 80.8926 17.328 80.5192 16.2077C80.1644 15.0686 79.987 13.2574 79.987 10.774C79.987 7.95453 80.071 6.09664 80.2391 5.20037C80.6872 2.71696 82.3304 1.28854 85.1685 0.915093C86.5876 0.728371 89.9393 0.63501 95.2235 0.63501ZM92.5628 4.16406C91.5731 4.16406 90.8356 4.16406 90.3501 4.16406C89.8646 4.16406 89.2858 4.19207 88.6136 4.24809C87.9414 4.28543 87.4652 4.31344 87.1851 4.33211C86.9237 4.35079 86.5876 4.43481 86.1768 4.58419C85.7847 4.73356 85.5327 4.85493 85.4206 4.9483C85.3086 5.02298 85.1499 5.20971 84.9445 5.50846C84.7391 5.80722 84.627 6.0593 84.6084 6.26469C84.5897 6.45141 84.543 6.79685 84.4683 7.301C84.4123 7.80515 84.3843 8.23461 84.3843 8.58938C84.3843 8.92548 84.3843 9.46698 84.3843 10.2139C84.3843 11.0541 84.3843 11.6983 84.3843 12.1464C84.3843 12.5946 84.431 13.0801 84.5244 13.6029C84.6364 14.107 84.7297 14.4618 84.8044 14.6672C84.8978 14.8726 85.0939 15.106 85.3926 15.3674C85.71 15.6101 85.9995 15.7689 86.2609 15.8435C86.541 15.8996 86.9984 15.9743 87.6333 16.0676C88.2681 16.1423 88.8563 16.1796 89.3978 16.1796C89.958 16.1796 90.7702 16.1796 91.8345 16.1796C94.5047 16.1796 96.2785 16.1423 97.1561 16.0676C98.0524 15.9929 98.7526 15.8155 99.2568 15.5355C99.7796 15.2554 100.134 14.7419 100.321 13.995C100.508 13.2481 100.601 11.941 100.601 10.0738C100.601 9.34561 100.601 8.81345 100.601 8.47735C100.601 8.12258 100.573 7.70245 100.517 7.21697C100.461 6.7315 100.414 6.39539 100.377 6.20867C100.358 6.02195 100.246 5.77921 100.041 5.48045C99.8543 5.1817 99.7049 4.99498 99.5929 4.92029C99.4808 4.82693 99.2194 4.70556 98.8086 4.55618C98.4165 4.4068 98.0897 4.33211 97.8283 4.33211C97.5669 4.31344 97.1001 4.28543 96.4279 4.24809C95.7744 4.19207 95.2049 4.16406 94.7194 4.16406C94.2526 4.16406 93.5337 4.16406 92.5628 4.16406Z" fill="white"/>
<path d="M71.1651 12.3426H64.359C63.8175 12.3426 63.3881 12.2212 63.0707 11.9785C62.7719 11.717 62.6225 11.3623 62.6225 10.9141C62.6225 10.4847 62.7719 10.1486 63.0707 9.90584C63.3881 9.64443 63.8175 9.51373 64.359 9.51373H73.5458C74.1433 9.47638 74.6008 9.60709 74.9182 9.90584C75.2356 10.1859 75.385 10.6061 75.3663 11.1662V11.5023C75.3663 13.2575 75.3103 14.5179 75.1983 15.2834C75.0862 16.049 74.8528 16.7492 74.4981 17.3841C73.9753 18.355 73.0043 19.0179 71.5852 19.3727C70.7636 19.5781 68.0281 19.6808 63.3788 19.6808C58.7107 19.6808 55.8538 19.4754 54.8082 19.0646C53.9119 18.7285 53.2117 18.271 52.7076 17.6922C52.2221 17.0947 51.886 16.3011 51.6993 15.3115C51.4939 14.3405 51.3912 12.688 51.3912 10.354C51.3912 7.88924 51.4939 6.13405 51.6993 5.08841C51.9047 4.04276 52.3061 3.19317 52.9036 2.53965C53.6879 1.69939 54.8082 1.18591 56.2646 0.999186C57.6464 0.775119 60.7366 0.663086 65.5354 0.663086C68.2615 0.663086 70.2128 0.784456 71.3891 1.02719C72.5842 1.26993 73.4804 1.73674 74.0779 2.42761C74.7875 3.23052 75.1423 4.17347 75.1423 5.25646C75.1423 5.74194 74.9929 6.12472 74.6941 6.4048C74.414 6.68488 74.0219 6.82492 73.5178 6.82492H72.6775C71.7439 6.8436 71.1557 6.42347 70.913 5.56455C70.7636 5.13509 70.4835 4.80832 70.0728 4.58425C69.662 4.37886 69.1391 4.24815 68.5043 4.19214C67.8881 4.11745 66.7491 4.08011 65.0873 4.08011C61.6702 4.08011 59.4763 4.13612 58.5053 4.24816C57.5343 4.36019 56.8715 4.63094 56.5167 5.0604C55.9939 5.63924 55.7325 7.23571 55.7325 9.84983C55.7325 11.6984 55.7978 13.0148 55.9285 13.799C56.0779 14.5646 56.3487 15.1154 56.7408 15.4515C57.1516 15.8249 57.7771 16.0677 58.6173 16.1797C59.4763 16.2731 61.1754 16.3198 63.7149 16.3198C66.2543 16.3198 67.8881 16.2731 68.6163 16.1797C69.3445 16.0864 69.9047 15.853 70.2968 15.4795C70.8943 14.9007 71.1931 13.9764 71.1931 12.7067C71.1931 12.576 71.1837 12.4546 71.1651 12.3426Z" fill="white"/>
<path d="M37.0472 0.63501C39.5119 0.63501 41.3324 0.765716 42.5088 1.02713C43.6851 1.28854 44.6001 1.77402 45.2536 2.48356C46.0005 3.32381 46.458 4.6402 46.626 6.43274C46.7007 7.1983 46.738 8.51469 46.738 10.3819C46.738 12.7159 46.598 14.4338 46.3179 15.5355C46.0565 16.6184 45.571 17.4774 44.8615 18.1122C43.9092 18.9525 42.3967 19.438 40.3241 19.5687C39.2972 19.662 36.6177 19.7087 32.2857 19.7087C29.989 19.7087 28.2712 19.634 27.1322 19.4846C26.0119 19.3353 25.0782 19.0645 24.3314 18.6724C23.3791 18.1496 22.7162 17.328 22.3428 16.2077C21.988 15.0686 21.8106 13.2574 21.8106 10.774C21.8106 7.95453 21.8946 6.09664 22.0627 5.20037C22.5108 2.71696 24.154 1.28854 26.9922 0.915093C28.4112 0.728371 31.7629 0.63501 37.0472 0.63501ZM34.3864 4.16406C33.3967 4.16406 32.6592 4.16406 32.1737 4.16406C31.6882 4.16406 31.1094 4.19207 30.4372 4.24809C29.765 4.28543 29.2888 4.31344 29.0088 4.33211C28.7473 4.35079 28.4112 4.43481 28.0005 4.58419C27.6083 4.73356 27.3563 4.85493 27.2442 4.9483C27.1322 5.02298 26.9735 5.20971 26.7681 5.50846C26.5627 5.80722 26.4507 6.0593 26.432 6.26469C26.4133 6.45141 26.3666 6.79685 26.2919 7.301C26.2359 7.80515 26.2079 8.23461 26.2079 8.58938C26.2079 8.92548 26.2079 9.46698 26.2079 10.2139C26.2079 11.0541 26.2079 11.6983 26.2079 12.1464C26.2079 12.5946 26.2546 13.0801 26.348 13.6029C26.46 14.107 26.5534 14.4618 26.628 14.6672C26.7214 14.8726 26.9175 15.106 27.2162 15.3674C27.5336 15.6101 27.8231 15.7689 28.0845 15.8435C28.3646 15.8996 28.822 15.9743 29.4569 16.0676C30.0917 16.1423 30.6799 16.1796 31.2214 16.1796C31.7816 16.1796 32.5938 16.1796 33.6581 16.1796C36.3283 16.1796 38.1021 16.1423 38.9797 16.0676C39.876 15.9929 40.5762 15.8155 41.0804 15.5355C41.6032 15.2554 41.958 14.7419 42.1447 13.995C42.3314 13.2481 42.4248 11.941 42.4248 10.0738C42.4248 9.34561 42.4248 8.81345 42.4248 8.47735C42.4248 8.12258 42.3967 7.70245 42.3407 7.21697C42.2847 6.7315 42.238 6.39539 42.2007 6.20867C42.182 6.02195 42.07 5.77921 41.8646 5.48045C41.6779 5.1817 41.5285 4.99498 41.4165 4.92029C41.3044 4.82693 41.043 4.70556 40.6322 4.55618C40.2401 4.4068 39.9133 4.33211 39.6519 4.33211C39.3905 4.31344 38.9237 4.28543 38.2515 4.24809C37.598 4.19207 37.0285 4.16406 36.543 4.16406C36.0762 4.16406 35.3573 4.16406 34.3864 4.16406Z" fill="white"/>
<path d="M4.70539 16.0116H16.5249C17.7013 15.9556 18.3081 16.4784 18.3455 17.5801V17.9442C18.3081 19.0458 17.7013 19.5686 16.5249 19.5126H2.21265C1.57779 19.5313 1.11099 19.3913 0.81223 19.0925C0.513474 18.7937 0.373432 18.3269 0.392104 17.6921V2.6516C0.35476 1.4379 0.924263 0.831055 2.10061 0.831055H2.99688C4.17323 0.831055 4.74274 1.4379 4.70539 2.6516V16.0116Z" fill="white"/>
</svg>
