<svg width="40" height="40" viewBox="0 0 40 40" fill="none" xmlns="http://www.w3.org/2000/svg">
<path d="M20 3.33325C10.8 3.33325 3.33334 10.7999 3.33334 19.9999C3.33334 29.1999 10.8 36.6666 20 36.6666C29.2 36.6666 36.6667 29.1999 36.6667 19.9999C36.6667 10.7999 29.2 3.33325 20 3.33325ZM27.7333 14.6666C27.4833 17.2999 26.4 23.6999 25.85 26.6499C25.6167 27.8999 25.15 28.3166 24.7167 28.3666C23.75 28.4499 23.0167 27.7333 22.0833 27.1166C20.6167 26.1499 19.7833 25.5499 18.3667 24.6166C16.7167 23.5333 17.7833 22.9333 18.7333 21.9666C18.9833 21.7166 23.25 17.8333 23.3333 17.4833C23.3449 17.4302 23.3434 17.3752 23.3289 17.3229C23.3143 17.2706 23.2873 17.2227 23.25 17.1833C23.15 17.0999 23.0167 17.1333 22.9 17.1499C22.75 17.1833 20.4167 18.7333 15.8667 21.7999C15.2 22.2499 14.6 22.4833 14.0667 22.4666C13.4667 22.4499 12.3333 22.1333 11.4833 21.8499C10.4333 21.5166 9.61668 21.3333 9.68334 20.7499C9.71668 20.4499 10.1333 20.1499 10.9167 19.8333C15.7833 17.7166 19.0167 16.3166 20.6333 15.6499C25.2667 13.7166 26.2167 13.3833 26.85 13.3833C26.9833 13.3833 27.3 13.4166 27.5 13.5833C27.6667 13.7166 27.7167 13.8999 27.7333 14.0333C27.7167 14.1333 27.75 14.4333 27.7333 14.6666Z" fill="white"/>
</svg>
